<svg xmlns="http://www.w3.org/2000/svg" width="132" height="34" viewBox="0 0 132 34">
  <g id="logo_iotube" transform="translate(-628 -121)">
    <g id="组_873" data-name="组 873" transform="translate(0 72)">
      <g id="组_855" data-name="组 855" transform="translate(628 49)">
        <g id="组件_39_33" data-name="组件 39 – 33">
          <rect id="矩形_1785" data-name="矩形 1785" width="34" height="34" fill="none"/>
          <path id="减去_37" data-name="减去 37" d="M0,12.506A12.5,12.5,0,1,1,12.5,25,12.514,12.514,0,0,1,0,12.506Zm.992,0A11.5,11.5,0,1,0,12.5,1,11.51,11.51,0,0,0,.992,12.506Zm2,0A9.5,9.5,0,1,1,12.5,22,9.507,9.507,0,0,1,3,12.506Zm1,0a8.5,8.5,0,1,0,8.5-8.5A8.507,8.507,0,0,0,4,12.506Z" transform="translate(7 4)" fill="#33fe99"/>
          <rect id="矩形_1789" data-name="矩形 1789" width="1" height="26" transform="translate(3 4)" fill="#33fe99"/>
          <rect id="矩形_1790" data-name="矩形 1790" width="1" height="26" transform="translate(1 4)" fill="#33fe99"/>
          <rect id="矩形_1791" data-name="矩形 1791" width="1" height="26" transform="translate(5 4)" fill="#33fe99"/>
          <path id="减去_36" data-name="减去 36" d="M520.156,549.922h-1.413l25.993-26h1.415Z" transform="translate(-513.245 -519.922)" fill="#33fe99"/>
          <circle id="椭圆_2485" data-name="椭圆 2485" cx="6.5" cy="6.5" r="6.5" transform="translate(13 10)" fill="none"/>
          <path id="路径_8185" data-name="路径 8185" d="M532.745,542.922a6.5,6.5,0,1,1,6.5-6.5A6.508,6.508,0,0,1,532.745,542.922Zm0-12a5.5,5.5,0,1,0,5.5,5.5A5.506,5.506,0,0,0,532.745,530.921Z" transform="translate(-513.245 -519.922)" fill="#33fe99"/>
          <g id="椭圆_2482" data-name="椭圆 2482" transform="translate(16 12.999)">
            <g id="组_840" data-name="组 840">
              <path id="路径_8186" data-name="路径 8186" d="M532.745,539.921a3.5,3.5,0,1,1,3.5-3.5A3.5,3.5,0,0,1,532.745,539.921Z" transform="translate(-529.245 -532.921)" fill="#33fe99"/>
            </g>
          </g>
        </g>
      </g>
      <g id="组_865" data-name="组 865" transform="translate(736.353 50)">
        <rect id="矩形_1832" data-name="矩形 1832" width="24" height="10" rx="1" transform="translate(-0.353 1)" fill="#313132"/>
        <path id="路径_8207" data-name="路径 8207" d="M-17.4.108A1.671,1.671,0,0,1-18.265-.1a1.3,1.3,0,0,1-.527-.58h-.054L-18.927,0h-.621V-6.48h.756v2.655a1.517,1.517,0,0,1,.535-.522,1.6,1.6,0,0,1,.86-.225,1.908,1.908,0,0,1,1.017.27,1.834,1.834,0,0,1,.693.792,2.9,2.9,0,0,1,.252,1.269,2.953,2.953,0,0,1-.252,1.282,1.819,1.819,0,0,1-.7.8A1.915,1.915,0,0,1-17.4.108Zm-.1-.72a1.2,1.2,0,0,0,.932-.4A1.764,1.764,0,0,0-16.2-2.232a1.764,1.764,0,0,0-.364-1.22,1.2,1.2,0,0,0-.932-.4,1.217,1.217,0,0,0-.936.4,1.749,1.749,0,0,0-.369,1.22,1.749,1.749,0,0,0,.369,1.219A1.217,1.217,0,0,0-17.5-.612Zm4.941.72a2.1,2.1,0,0,1-1.111-.293A2.068,2.068,0,0,1-14.427-1a2.586,2.586,0,0,1-.279-1.228,2.621,2.621,0,0,1,.274-1.229,2.027,2.027,0,0,1,.76-.819,2.156,2.156,0,0,1,1.134-.293,2.017,2.017,0,0,1,1.107.293,1.946,1.946,0,0,1,.7.77,2.228,2.228,0,0,1,.243,1.026q0,.1,0,.2t0,.225h-3.465a1.729,1.729,0,0,0,.229.824,1.315,1.315,0,0,0,.513.491,1.41,1.41,0,0,0,.661.162,1.276,1.276,0,0,0,.774-.207,1.272,1.272,0,0,0,.423-.576h.747A2.006,2.006,0,0,1-11.25-.319,1.905,1.905,0,0,1-12.555.108Zm0-4.005a1.414,1.414,0,0,0-.913.315,1.356,1.356,0,0,0-.481.882h2.718a1.217,1.217,0,0,0-.4-.878A1.348,1.348,0,0,0-12.555-3.9ZM-7.182,0a1.444,1.444,0,0,1-.963-.3A1.35,1.35,0,0,1-8.5-1.368V-3.816H-9.63v-.648h.675a.482.482,0,0,0,.531-.45l.126-.693h.558v1.143h1.782v.648H-7.74v2.448a.677.677,0,0,0,.176.531.931.931,0,0,0,.608.153h1V0Zm4.1.108A1.846,1.846,0,0,1-3.96-.081a1.255,1.255,0,0,1-.522-.5,1.385,1.385,0,0,1-.171-.68,1.2,1.2,0,0,1,.5-1.039,2.261,2.261,0,0,1,1.336-.355h1.224v-.09q0-1.17-1.071-1.17a1.308,1.308,0,0,0-.724.189.872.872,0,0,0-.373.594h-.774a1.45,1.45,0,0,1,.3-.774,1.64,1.64,0,0,1,.661-.5,2.316,2.316,0,0,1,.909-.171,1.755,1.755,0,0,1,1.391.5A1.945,1.945,0,0,1-.837-2.745V0h-.648l-.063-.693h-.063a1.95,1.95,0,0,1-.526.563A1.584,1.584,0,0,1-3.078.108Zm.135-.666a1.265,1.265,0,0,0,.734-.207,1.324,1.324,0,0,0,.459-.549,1.764,1.764,0,0,0,.158-.747H-2.754a1.361,1.361,0,0,0-.859.207.68.68,0,0,0-.247.549.68.68,0,0,0,.234.549A1.033,1.033,0,0,0-2.943-.558Z" transform="translate(21.647 9)" fill="#bac0cc"/>
      </g>
    </g>
    <path id="路径_8208" data-name="路径 8208" d="M-57.288,0a4.946,4.946,0,0,1-3.248-.994q-1.2-.994-1.2-3.542v-6.832h-3.5v-2.52h2.072a1.536,1.536,0,0,0,1.68-1.4l.42-2.24h2.3v3.64h5.488v2.52h-5.488v6.776a1.968,1.968,0,0,0,.49,1.526,2.566,2.566,0,0,0,1.694.434h3.248V0Zm14.056.336a4.7,4.7,0,0,1-3.822-1.554,6.875,6.875,0,0,1-1.3-4.522v-8.148h2.968V-6.1a4.3,4.3,0,0,0,.742,2.674,2.7,2.7,0,0,0,2.282.966A3.5,3.5,0,0,0-39.788-3.5a4.057,4.057,0,0,0,1.036-3v-7.392h2.968V0H-38.36l-.252-2.072h-.14A4.623,4.623,0,0,1-40.488-.364,5.263,5.263,0,0,1-43.232.336Zm18.788,0a4.953,4.953,0,0,1-2.59-.63,4.17,4.17,0,0,1-1.61-1.75h-.168L-29.064,0h-2.548V-20.16h2.968V-12.1a4.414,4.414,0,0,1,1.6-1.484,5.036,5.036,0,0,1,2.6-.644,5.907,5.907,0,0,1,3.108.826,5.7,5.7,0,0,1,2.17,2.45,9.03,9.03,0,0,1,.8,4,9.03,9.03,0,0,1-.8,4,5.7,5.7,0,0,1-2.17,2.45A5.907,5.907,0,0,1-24.444.336Zm-.616-2.828A3.494,3.494,0,0,0-22.414-3.6a4.657,4.657,0,0,0,1.05-3.318,4.754,4.754,0,0,0-1.05-3.36A3.473,3.473,0,0,0-25.06-11.4a3.494,3.494,0,0,0-2.646,1.106,4.7,4.7,0,0,0-1.05,3.346,4.71,4.71,0,0,0,1.05,3.332A3.473,3.473,0,0,0-25.06-2.492ZM-8.232.336a6.858,6.858,0,0,1-3.556-.91A6.363,6.363,0,0,1-14.2-3.108a7.9,7.9,0,0,1-.868-3.78,8.24,8.24,0,0,1,.854-3.836A6.29,6.29,0,0,1-11.8-13.3a6.905,6.905,0,0,1,3.6-.924,6.418,6.418,0,0,1,3.472.91,6.249,6.249,0,0,1,2.254,2.422,7.027,7.027,0,0,1,.8,3.332v.6q0,.322-.028.714H-12.152a4.131,4.131,0,0,0,1.26,2.926,3.838,3.838,0,0,0,2.632.994A3.544,3.544,0,0,0-6.174-2.87a3.173,3.173,0,0,0,1.134-1.5h3a6.351,6.351,0,0,1-2.1,3.346A6.088,6.088,0,0,1-8.232.336Zm0-11.984a3.864,3.864,0,0,0-2.436.826,3.78,3.78,0,0,0-1.372,2.31h7.392A3.253,3.253,0,0,0-5.74-10.78,3.619,3.619,0,0,0-8.232-11.648Z" transform="translate(732 147)" fill="#33fe99"/>
  </g>
</svg>
